HIERARCHY
ROOT RootJoint
{
    OFFSET   0.000000   0.000000   0.000000
    CHANNELS 6 Xposition Yposition Zposition Xrotation Yrotation Zrotation
    JOINT pelvis_lowerback
    {
        OFFSET   0.000000   0.093605   0.000000
        CHANNELS 3 Xrotation Yrotation Zrotation
        JOINT lowerback_torso
        {
            OFFSET   0.000000   0.100000   0.000000
            CHANNELS 3 Xrotation Yrotation Zrotation
            JOINT torso_head
            {
                OFFSET   0.000000   0.282350   0.000000
                CHANNELS 3 Xrotation Yrotation Zrotation
                End Site
                {
                    OFFSET   0.000000   0.192650   0.000000
                }
            }
            JOINT rTorso_Clavicle
            {
                OFFSET  -0.001000   0.157500   0.000000
                CHANNELS 3 Xrotation Yrotation Zrotation
                JOINT rShoulder
                {
                    OFFSET  -0.117647   0.000000   0.000000
                    CHANNELS 3 Xrotation Yrotation Zrotation
                    JOINT rElbow
                    {
                        OFFSET  -0.245000   0.000000   0.000000
                        CHANNELS 3 Xrotation Yrotation Zrotation
                        JOINT rWrist
                        {
                            OFFSET  -0.240000   0.000000   0.000000
                            CHANNELS 3 Xrotation Yrotation Zrotation
                            End Site
                            {
                                OFFSET  -0.116353  -0.002500   0.000000
                            }
                        }
                    }
                }
            }
            JOINT lTorso_Clavicle
            {
                OFFSET   0.001000   0.157500   0.000000
                CHANNELS 3 Xrotation Yrotation Zrotation
                JOINT lShoulder
                {
                    OFFSET   0.117647   0.000000   0.000000
                    CHANNELS 3 Xrotation Yrotation Zrotation
                    JOINT lElbow
                    {
                        OFFSET   0.245000   0.000000   0.000000
                        CHANNELS 3 Xrotation Yrotation Zrotation
                        JOINT lWrist
                        {
                            OFFSET   0.240000   0.000000   0.000000
                            CHANNELS 3 Xrotation Yrotation Zrotation
                            End Site
                            {
                                OFFSET   0.116353  -0.002500   0.000000
                            }
                        }
                    }
                }
            }
        }
    }
    JOINT rHip
    {
        OFFSET  -0.100000  -0.051395   0.000000
        CHANNELS 3 Xrotation Yrotation Zrotation
        JOINT rKnee
        {
            OFFSET   0.000000  -0.410000   0.000000
            CHANNELS 3 Xrotation Yrotation Zrotation
            JOINT rAnkle
            {
                OFFSET   0.000000  -0.390000   0.000000
                CHANNELS 3 Xrotation Yrotation Zrotation
                JOINT rToeJoint
                {
                    OFFSET   0.000000  -0.050000   0.130000
                    CHANNELS 3 Xrotation Yrotation Zrotation
                    End Site
                    {
                        OFFSET  -0.010000   0.002000   0.060000
                    }
                }
            }
        }
    }
    JOINT lHip
    {
        OFFSET   0.100000  -0.051395   0.000000
        CHANNELS 3 Xrotation Yrotation Zrotation
        JOINT lKnee
        {
            OFFSET   0.000000  -0.410000   0.000000
            CHANNELS 3 Xrotation Yrotation Zrotation
            JOINT lAnkle
            {
                OFFSET   0.000000  -0.390000   0.000000
                CHANNELS 3 Xrotation Yrotation Zrotation
                JOINT lToeJoint
                {
                    OFFSET   0.000000  -0.050000   0.130000
                    CHANNELS 3 Xrotation Yrotation Zrotation
                    End Site
                    {
                        OFFSET   0.010000   0.002000   0.060000
                    }
                }
            }
        }
    }
}
MOTION
Frames: 12
Frame Time:   0.008333
 -2.376719   0.925631   3.975860   0.000000   0.000000   0.000000   0.000000   0.000000   0.000000   0.000000   0.000000   0.000000   0.000000   0.000000   0.000000   0.000000   0.000000   0.000000   0.000000   0.000000   0.000000   0.000000   0.000000   0.000000   0.000000   0.000000   0.000000   0.000000   0.000000   0.000000   0.000000   0.000000   0.000000   0.000000   0.000000   0.000000   0.000000   0.000000   0.000000   0.000000   0.000000   0.000000   0.000000   0.000000   0.000000   0.000000   0.000000   0.000000   0.000000   0.000000   0.000000   0.000000   0.000000   0.000000   0.000000   0.000000   0.000000   0.000000   0.000000   0.000000   0.000000   0.000000   0.000000
 -2.376670   0.926299   3.976057  -0.314602   0.020835  -0.042917   0.271066   0.050081   0.040722   0.150392  -0.192595   0.026735  -0.158074   0.154000   0.048919   0.176692  -0.206718   0.435997   0.819115   0.334552   2.008343   0.014691   0.678630  -0.006604   0.442353  -0.419999  -2.739184   0.218796   0.237610  -0.626380   1.065548  -0.094395  -1.909401   0.012517  -0.569108   0.006965   0.502651   0.241912   2.820415   0.123056   0.212626  -0.069834   0.801059   0.000803   0.001624  -0.833625  -0.017655   0.040040  -0.279261  -0.000173  -0.000528   0.168809  -0.167360   0.169257   0.674675  -0.000750  -0.000858  -0.822168   0.043778  -0.032119   0.314748  -0.000257  -0.000284
 -2.376631   0.927424   3.976406  -0.666041   0.053519  -0.087653   0.513939   0.084618   0.082736   0.327286  -0.391922   0.054932  -0.297646   0.299388   0.105931   0.350683  -0.355375   1.614523   1.609003   0.741647   4.612364   0.034199   1.346145  -0.011361   0.912799  -0.626790  -4.722514   0.440180   0.412123  -2.016218   2.106609  -0.264492  -4.440981   0.029080  -1.124530   0.012116   1.042550   0.338707   4.872066   0.288868   0.420584  -0.229884   1.665046   0.002257   0.003061  -1.613054  -0.033551   0.077294  -0.582322  -0.000574  -0.001022   0.388464  -0.328905   0.442303   1.406751  -0.002084  -0.001474  -1.591054   0.085413  -0.061150   0.565914  -0.000643  -0.000418
 -2.376603   0.928568   3.976867  -0.999531   0.085990  -0.127582   0.717021   0.110172   0.118660   0.480178  -0.585311   0.077277  -0.430029   0.434684   0.162711   0.514369  -0.457318   3.243914   2.361784   1.207437   7.606704   0.053392   1.979092  -0.014324   1.368644  -0.734949  -5.844974   0.650006   0.530285  -3.857805   3.116432  -0.512944  -7.377464   0.045491  -1.653087   0.015593   1.566128   0.352067   6.039394   0.460392   0.612629  -0.469314   2.494223   0.003940   0.003954  -2.340040  -0.049834   0.111393  -0.865797  -0.001059  -0.001341   0.619531  -0.475297   0.793153   2.112190  -0.003619  -0.001797  -2.308297   0.126003  -0.087049   0.790487  -0.001074  -0.000475
 -2.376586   0.929419   3.977417  -1.306111   0.111330  -0.162728   0.886600   0.129851   0.147237   0.604834  -0.770442   0.092861  -0.557954   0.560819   0.217063   0.668857  -0.528142   5.124075   3.076741   1.727118  10.861077   0.069948   2.575346  -0.015977   1.807882  -0.785910  -6.331444   0.846612   0.609019  -5.944667   4.095405  -0.837611 -10.581920   0.059798  -2.153738   0.017851   2.071908   0.304721   6.555426   0.627808   0.789452  -0.773009   3.273738   0.005588   0.004353  -3.019097  -0.066408   0.142591  -1.132080  -0.001555  -0.001516   0.851979  -0.607697   1.205212   2.778019  -0.005128  -0.001927  -2.978226   0.165363  -0.110094   0.989950  -0.001477  -0.000489
 -2.376614   0.929730   3.978037  -1.586451   0.126309  -0.191488   1.029288   0.145288   0.162171   0.705821  -0.946494   0.088793  -0.680763   0.678380   0.272266   0.815237  -0.579800   7.128334   3.752546   2.295648  14.291263   0.082915   3.134770  -0.016710   2.229977  -0.801109  -6.384568   1.030367   0.661596  -8.186277   4.998673  -1.216770 -13.827487   0.070926  -2.627110   0.019058   2.561007   0.205374   6.565358   0.788586   0.952435  -1.126178   4.003566   0.007036   0.004372  -3.653535  -0.083079   0.171104  -1.382015  -0.002008  -0.001579   1.082749  -0.727690   1.665673   3.404154  -0.006506  -0.001937  -3.604037   0.203235  -0.130632   1.167331  -0.001820  -0.000484
 -2.376714   0.929318   3.978709  -1.843123   0.130339  -0.214355   1.150402   0.157703   0.159396   0.788227  -1.112975   0.061979  -0.797554   0.787882   0.326032   0.954641  -0.620848   9.169368   4.387674   2.907885  17.838179   0.092139   3.658011  -0.016814   2.634364  -0.795223  -6.157849   1.201800   0.698384 -10.489046   5.817273  -1.632501 -17.003721   0.078621  -3.073334   0.019472   3.031516   0.067059   6.235424   0.942106   1.102870  -1.514806   4.686318   0.008203   0.004130  -4.246198  -0.099601   0.197197  -1.615558  -0.002386  -0.001562   1.310264  -0.836646   2.164588   3.992715  -0.007696  -0.001871  -4.188542   0.239508  -0.148919   1.325793  -0.002091  -0.000468
 -2.376805   0.927412   3.978799  -1.863931   0.110600  -0.258005   1.193928   0.161068   0.221804   0.786290  -1.261481  -0.014759  -1.086307   0.745653   0.290715   1.131959  -0.488801  10.624392   5.069306   3.475685  21.118028   0.101179   4.310487  -0.018998   2.968218  -0.762620  -4.736166   1.411356   0.734658 -11.942431   6.446275  -2.098144 -20.156298   0.083000  -3.557160   0.019957   3.418541  -0.219863   4.822640   0.821486   1.010334  -1.846089   5.215098   0.008285   0.002545  -4.505450  -0.097987   0.454516  -1.574344  -0.001865  -0.001290   1.304977  -0.782212   2.635026   4.086261  -0.006506  -0.001432  -4.534956   0.278060  -0.141258   1.520648  -0.002410  -0.000228
 -2.376887   0.924257   3.978568  -1.849784   0.098021  -0.304290   1.286136   0.165965   0.287671   0.783112  -1.393226  -0.082611  -1.370571   0.699101   0.245675   1.272869  -0.308909  11.776517   5.664926   4.071640  24.035439   0.103729   4.934617  -0.020614   3.301323  -0.644352  -3.419780   1.589450   0.732070 -13.059431   7.003564  -2.577175 -22.938717   0.082720  -4.017639   0.020113   3.787376  -0.564815   3.538656   0.670138   0.911558  -2.136909   5.668671   0.007940   0.001388  -4.745173  -0.099318   0.694861  -1.509854  -0.001436  -0.001099   1.207035  -0.726922   3.058648   4.071218  -0.005155  -0.001156  -4.862061   0.315191  -0.133553   1.701346  -0.002533  -0.000031
 -2.376950   0.919995   3.978170  -1.829072   0.091230  -0.351560   1.412120   0.179180   0.355485   0.797821  -1.507121  -0.137415  -1.631295   0.655367   0.200954   1.381916  -0.107575  12.708683   6.183564   4.673422  26.651621   0.102032   5.526441  -0.021610   3.625013  -0.482136  -2.358578   1.740011   0.706609 -13.940601   7.497739  -3.055165 -25.415798   0.079527  -4.452032   0.019864   4.138412  -0.919518   2.533166   0.526067   0.819517  -2.392464   6.078890   0.007407   0.000576  -4.969340  -0.101442   0.919258  -1.449171  -0.001106  -0.000936   1.053507  -0.677542   3.435498   4.018527  -0.003973  -0.000961  -5.169008   0.349572  -0.126244   1.865127  -0.002504   0.000110
 -2.377004   0.919876   3.978207  -1.954525   0.007255  -0.199224   1.605209   0.230057   0.257040   0.879121  -1.582385  -0.249176  -1.863148   0.615709   0.153116   1.469558   0.110658  13.802762   6.631909   5.275721  29.133158   0.099407   6.078088  -0.021742   3.936489  -0.342023  -1.555404   1.875694   0.678021 -14.925569   7.937442  -3.519040 -27.721882   0.075649  -4.848509   0.019100   4.469086  -1.190844   1.825678   0.368362   0.673564  -2.596530   6.592448   0.006056  -0.000705  -4.913103  -0.155017   1.235168  -1.288131  -0.001249  -0.001182   0.939983  -0.536430   3.295283   4.452732  -0.003225  -0.000460  -4.879071   0.452712  -0.274940   2.082647  -0.001749   0.000424
 -2.377168   0.919909   3.978443  -2.013322  -0.053340  -0.063617   1.723140   0.273588   0.201153   0.928920  -1.650043  -0.354112  -2.075484   0.578316   0.101161   1.555007   0.302384  14.672562   7.029918   5.853130  31.428923   0.094637   6.600460  -0.021270   4.233550  -0.154893  -0.687764   2.011424   0.669090 -15.702817   8.336834  -3.959081 -29.859341   0.070556  -5.223132   0.017958   4.783352  -1.490204   1.063209   0.245792   0.598618  -2.756048   6.978326   0.004868  -0.001092  -5.092881  -0.151124   1.418995  -1.193072  -0.001133  -0.001064   0.880960  -0.466957   3.165250   4.729856  -0.002597  -0.000310  -4.941777   0.488234  -0.300779   2.271962  -0.001366   0.000433
